<svg xmlns="http://www.w3.org/2000/svg" xmlns:xlink="http://www.w3.org/1999/xlink" width="500" zoomAndPan="magnify" viewBox="0 0 375 374.999991" height="500" preserveAspectRatio="xMidYMid meet" version="1.0"><defs><clipPath id="7f2488efd3"><path d="M 107 142.664062 L 267.964844 142.664062 L 267.964844 232.664062 L 107 232.664062 Z M 107 142.664062 " clip-rule="nonzero"/></clipPath></defs><g clip-path="url(#7f2488efd3)"><path fill="#ffffff" d="M 240.480469 220.371094 C 242.734375 220.371094 244.957031 220.371094 247.214844 220.371094 C 250.984375 220.371094 254.785156 220.339844 258.554688 220.371094 C 260.359375 220.371094 261.484375 221.4375 261.519531 223.175781 C 261.519531 223.820312 261.839844 223.980469 262.324219 224.140625 C 265.867188 225.429688 268.21875 228.75 268.089844 232.324219 C 214.417969 232.324219 160.710938 232.324219 107.039062 232.324219 C 106.78125 229.007812 109.164062 225.464844 112.546875 224.207031 C 113.253906 223.949219 113.480469 223.660156 113.511719 222.917969 C 113.609375 221.273438 114.738281 220.339844 116.574219 220.339844 C 121.214844 220.308594 125.820312 220.339844 130.460938 220.339844 C 131.585938 220.339844 132.714844 220.339844 133.90625 220.339844 C 133.972656 219.953125 134.035156 219.632812 134.101562 219.246094 C 134.648438 219.246094 135.195312 219.246094 135.871094 219.246094 C 135.871094 218.375 135.9375 217.570312 135.871094 216.765625 C 135.742188 215.316406 135.613281 215.28125 134.101562 215.445312 C 134.035156 215.734375 133.972656 216.054688 133.90625 216.410156 C 133.519531 216.410156 133.101562 216.410156 132.648438 216.410156 C 132.648438 214.960938 132.648438 213.542969 132.648438 212.0625 C 133.070312 212.0625 133.457031 212.0625 133.90625 212.0625 C 133.972656 212.351562 134.035156 212.640625 134.101562 212.996094 C 134.550781 212.996094 134.96875 212.996094 135.453125 212.996094 C 135.453125 208.742188 135.453125 204.523438 135.453125 200.171875 C 134.359375 200.171875 133.292969 200.171875 132.167969 200.171875 C 132.167969 195.242188 132.167969 190.441406 132.167969 185.546875 C 131.621094 185.546875 131.167969 185.546875 130.589844 185.546875 C 130.589844 186.03125 130.621094 186.511719 130.589844 186.996094 C 130.554688 187.1875 130.394531 187.351562 130.296875 187.542969 C 130.136719 187.445312 129.910156 187.351562 129.78125 187.1875 C 129.394531 186.707031 129.074219 186.191406 128.6875 185.644531 C 128.429688 185.835938 128.300781 186.03125 128.109375 186.125 C 127.367188 186.542969 126.753906 186.253906 126.691406 185.417969 C 126.625 184.484375 126.59375 183.546875 126.691406 182.613281 C 126.753906 181.617188 127.429688 181.359375 128.269531 181.9375 C 128.398438 182.035156 128.460938 182.164062 128.621094 182.355469 C 129.074219 181.746094 129.394531 181.230469 129.78125 180.746094 C 129.910156 180.585938 130.136719 180.519531 130.296875 180.390625 C 130.394531 180.585938 130.589844 180.746094 130.589844 180.9375 C 130.621094 181.421875 130.589844 181.90625 130.589844 182.421875 C 131.136719 182.421875 131.585938 182.421875 132.101562 182.421875 C 132.101562 177.296875 132.101562 172.207031 132.101562 166.925781 C 130.847656 166.761719 129.589844 166.539062 128.300781 166.472656 C 127.882812 166.441406 127.429688 166.796875 127.042969 167.054688 C 126.433594 167.472656 125.882812 167.503906 125.433594 166.890625 C 125.015625 166.34375 125.175781 165.539062 125.882812 165.25 C 126.398438 165.023438 127.011719 164.960938 127.59375 164.992188 C 129.105469 165.152344 130.621094 165.410156 132.199219 165.667969 C 132.199219 164.058594 132.199219 162.445312 132.199219 160.867188 C 132.199219 160.222656 132.296875 159.546875 132.199219 158.902344 C 131.875 156.871094 132.425781 155.292969 134.488281 154.519531 C 134.710938 154.425781 134.839844 154.101562 135.003906 153.910156 C 134.808594 153.746094 134.582031 153.585938 134.292969 153.359375 C 134.324219 153.167969 134.359375 152.910156 134.421875 152.621094 C 134.488281 152.363281 134.550781 152.136719 134.648438 151.847656 C 136.226562 151.847656 137.773438 151.847656 139.414062 151.847656 C 139.414062 152.652344 139.414062 153.394531 139.414062 154.230469 C 139.15625 154.261719 138.867188 154.328125 138.640625 154.359375 C 138.320312 155.164062 138.707031 155.617188 139.285156 156.035156 C 143.828125 159.191406 148.917969 161.027344 154.269531 162.15625 C 163.449219 164.089844 172.632812 163.734375 181.8125 162.058594 C 190.578125 160.449219 199.339844 158.804688 208.101562 157.195312 C 209.230469 157 210.359375 156.871094 211.550781 156.710938 C 211.550781 154.167969 211.550781 151.652344 211.550781 149.171875 C 211.550781 147.367188 211.550781 145.597656 211.550781 143.792969 C 211.550781 143.246094 211.582031 142.664062 212.289062 142.664062 C 213.0625 142.664062 213.097656 143.277344 213.097656 143.855469 C 213.097656 147.789062 213.097656 151.75 213.097656 155.679688 C 213.097656 155.9375 213.097656 156.195312 213.097656 156.550781 C 213.515625 156.550781 213.871094 156.582031 214.191406 156.550781 C 219.25 156.261719 223.890625 157.453125 227.949219 160.546875 C 228.140625 160.707031 228.398438 160.835938 228.625 160.835938 C 229.816406 160.867188 231.007812 160.835938 232.296875 160.835938 C 232.296875 158.710938 232.296875 156.679688 232.296875 154.617188 C 233.230469 154.617188 234.070312 154.617188 235.003906 154.617188 C 235.003906 156.710938 235.003906 158.773438 235.003906 160.898438 C 235.839844 160.898438 236.582031 160.898438 237.421875 160.898438 C 237.421875 158.386719 237.421875 155.875 237.421875 153.296875 C 237.808594 153.265625 238.097656 153.265625 238.515625 153.230469 C 238.515625 154.488281 238.515625 155.714844 238.515625 157 C 239.417969 157 240.222656 157 241.125 157 C 241.125 154.777344 241.125 152.621094 241.125 150.460938 C 241.125 148.980469 241.703125 147.789062 243.089844 147.109375 C 245.410156 145.953125 248.050781 147.59375 248.082031 150.203125 C 248.148438 152.621094 248.082031 155.035156 248.082031 157.421875 C 248.082031 157.773438 248.082031 158.128906 248.082031 158.453125 C 250.597656 159.191406 251.210938 160.03125 251.210938 162.609375 C 251.210938 168.792969 251.210938 174.980469 251.210938 181.164062 C 251.210938 182.871094 250.308594 183.804688 248.082031 184.546875 C 248.082031 187.1875 248.117188 189.863281 248.082031 192.539062 C 248.082031 194.050781 247.214844 195.242188 245.859375 195.792969 C 244.574219 196.304688 243.058594 195.953125 242.089844 194.953125 C 241.351562 194.179688 241.125 193.214844 241.125 192.183594 C 241.125 188.316406 241.125 184.449219 241.125 180.550781 C 241.125 180.292969 241.15625 180.035156 241.09375 179.777344 C 241.0625 179.648438 240.933594 179.554688 240.835938 179.457031 C 240.738281 179.585938 240.578125 179.683594 240.511719 179.84375 C 240.480469 179.90625 240.511719 180.035156 240.511719 180.132812 C 240.511719 193.4375 240.511719 206.777344 240.546875 220.082031 C 240.382812 220.113281 240.417969 220.148438 240.480469 220.371094 Z M 138.03125 220.339844 C 138.449219 220.339844 138.804688 220.339844 139.15625 220.339844 C 143.152344 220.339844 147.148438 220.339844 151.144531 220.339844 C 163.835938 220.339844 176.53125 220.339844 189.222656 220.371094 C 190.0625 220.371094 190.640625 220.148438 191.125 219.503906 C 194.023438 215.703125 197.050781 211.996094 199.757812 208.066406 C 202.65625 203.878906 204.914062 199.335938 205.816406 194.210938 C 206.847656 188.414062 204.527344 184.03125 199.082031 181.710938 C 198.179688 181.324219 197.277344 181.003906 196.3125 180.746094 C 188.097656 178.621094 179.75 177.234375 171.3125 176.6875 C 165.800781 176.332031 160.324219 176.332031 154.878906 177.425781 C 152.558594 177.878906 150.304688 178.523438 148.339844 179.84375 C 146.214844 181.230469 145.277344 183.097656 145.632812 185.738281 C 146.277344 190.3125 145.246094 194.46875 142.089844 197.980469 C 141.089844 199.109375 140.15625 200.398438 138.289062 200.074219 C 138.289062 201.492188 138.289062 202.816406 138.289062 204.265625 C 139.0625 204.265625 139.800781 204.265625 140.542969 204.265625 C 140.542969 204.972656 140.542969 205.585938 140.542969 206.070312 C 139.285156 206.421875 138.160156 206.777344 136.933594 207.132812 C 136.933594 208.871094 136.933594 210.707031 136.933594 212.707031 C 137.773438 212.832031 138.578125 212.960938 139.382812 213.089844 C 139.511719 213.125 139.738281 213.15625 139.800781 213.285156 C 140.222656 214.027344 140.382812 213.574219 140.703125 213.1875 C 140.960938 212.867188 141.382812 212.511719 141.765625 212.480469 C 142.574219 212.382812 142.992188 212.996094 143.152344 213.703125 C 143.378906 214.636719 142.960938 215.574219 142.21875 215.863281 C 141.445312 216.152344 140.996094 215.734375 140.640625 215.121094 C 140.542969 214.960938 140.445312 214.800781 140.414062 214.734375 C 139.707031 214.832031 139.027344 214.765625 138.480469 214.992188 C 137.804688 215.28125 136.839844 215.636719 136.613281 216.214844 C 136.257812 217.117188 136.386719 218.214844 136.324219 219.246094 C 136.902344 219.277344 137.355469 219.308594 137.835938 219.34375 C 137.933594 219.632812 137.964844 219.921875 138.03125 220.339844 Z M 239.160156 220.308594 C 239.160156 206.648438 239.160156 193.117188 239.160156 179.554688 C 239 179.523438 238.835938 179.488281 238.707031 179.425781 C 238.097656 180.199219 238.742188 181.359375 238.320312 182.226562 C 237.9375 182.226562 237.515625 182.226562 237.066406 182.226562 C 237.066406 180.070312 237.066406 178.007812 237.066406 175.976562 C 236.550781 176.011719 236.003906 176.269531 235.710938 176.074219 C 234.585938 175.300781 233.328125 175.65625 232.136719 175.527344 C 231.332031 175.460938 231.042969 175.6875 230.945312 176.558594 C 230.785156 177.8125 230.558594 179.199219 229.914062 180.261719 C 229.367188 181.164062 229.074219 181.96875 229.109375 182.96875 C 229.171875 184.0625 229.238281 185.191406 229.429688 186.253906 C 229.882812 188.769531 230.363281 191.3125 230.976562 193.792969 C 231.265625 194.953125 231.941406 195.984375 233.359375 196.179688 C 233.359375 201.074219 233.328125 205.875 233.394531 210.707031 C 233.394531 211.933594 233.230469 212.996094 232.363281 213.898438 C 232.199219 214.058594 232.007812 214.347656 232.007812 214.574219 C 231.976562 216.472656 231.976562 218.40625 231.976562 220.339844 C 234.390625 220.308594 236.710938 220.308594 239.160156 220.308594 Z M 126.980469 166.28125 C 126.65625 166.023438 126.464844 165.734375 126.304688 165.765625 C 126.078125 165.796875 125.882812 166.054688 125.691406 166.214844 C 125.851562 166.375 125.980469 166.699219 126.140625 166.699219 C 126.367188 166.699219 126.59375 166.472656 126.980469 166.28125 Z M 126.980469 166.28125 " fill-opacity="1" fill-rule="nonzero"/></g></svg>